<svg width="76" height="76" viewBox="0 0 76 76" fill="none" xmlns="http://www.w3.org/2000/svg">
<rect width="76" height="76" rx="38" fill="#FFBCEC"/>
<path d="M18.249 18.2743C18.7454 18.3919 19.1895 18.4833 19.5814 18.5486C19.9863 18.6009 20.326 18.6401 20.6003 18.6662C20.9269 18.7054 21.2142 18.7184 21.4624 18.7054C21.7759 18.6923 22.1678 18.6466 22.638 18.5682C23.1083 18.4898 23.6047 18.4115 24.1272 18.3331C24.6497 18.2547 25.1657 18.1894 25.6751 18.1372C26.1845 18.0849 26.6287 18.0784 27.0075 18.1176C27.3863 18.1568 27.7847 18.2482 28.2027 18.3919C28.6207 18.5225 29.0126 18.7054 29.3783 18.9405C29.7441 19.1626 30.0576 19.4369 30.3188 19.7634C30.5932 20.09 30.763 20.4688 30.8283 20.8999C30.8936 21.3179 30.8544 21.7686 30.7107 22.2519C30.567 22.7221 30.3384 23.1858 30.0249 23.643C29.7114 24.0872 29.3196 24.4986 28.8493 24.8774C28.3791 25.2563 27.8565 25.5632 27.2818 25.7984C26.8246 25.9682 26.3282 26.0988 25.7927 26.1902C25.3355 26.2686 24.7999 26.3209 24.186 26.347C23.5851 26.3601 22.945 26.2947 22.2658 26.1511C22.1743 26.5299 22.1221 26.8826 22.109 27.2091C22.109 27.5226 22.1221 27.8035 22.1482 28.0517C22.1874 28.339 22.2396 28.6003 22.305 28.8354C22.3833 29.0705 22.4813 29.3449 22.5989 29.6584C22.7034 29.9196 22.8209 30.2396 22.9515 30.6185C23.0952 30.9842 23.2651 31.3957 23.461 31.8529C23.2259 31.8529 22.9973 31.8594 22.7752 31.8725C22.5531 31.8725 22.3507 31.879 22.1678 31.8921C21.9588 31.9051 21.7629 31.9182 21.58 31.9312C21.371 31.9443 21.1359 31.9704 20.8746 32.0096C20.6525 32.0357 20.3717 32.0749 20.0321 32.1272C19.7055 32.1794 19.3332 32.2447 18.9152 32.3231C19.1895 31.9312 19.4051 31.572 19.5618 31.2455C19.7316 30.9058 19.8557 30.6119 19.9341 30.3637C20.0255 30.0764 20.0843 29.8151 20.1104 29.58C20.1235 29.384 20.1235 29.0379 20.1104 28.5415C20.1104 28.0451 20.1039 27.4704 20.0908 26.8172C20.0778 26.1641 20.0582 25.4783 20.0321 24.7599C20.0059 24.0414 19.9733 23.3687 19.9341 22.7417C19.8949 22.1017 19.8492 21.553 19.7969 21.0958C19.7577 20.6386 19.7186 20.3382 19.6794 20.1945C19.6271 20.0247 19.5357 19.8418 19.4051 19.6459C19.3006 19.4761 19.1503 19.2801 18.9544 19.0581C18.7715 18.8229 18.5364 18.5617 18.249 18.2743ZM22.305 22.1343C22.2919 22.2649 22.2854 22.4021 22.2854 22.5458C22.2854 22.8201 22.305 23.1728 22.3441 23.6038C22.4356 23.8259 22.5466 24.0088 22.6772 24.1525C22.8209 24.2962 22.9711 24.4072 23.1279 24.4856C23.2977 24.5639 23.4675 24.6162 23.6373 24.6423C23.8071 24.6684 23.977 24.6815 24.1468 24.6815C24.5387 24.6684 24.9501 24.577 25.3812 24.4072C25.9559 24.159 26.3609 23.8063 26.596 23.3491C26.8311 22.8919 26.9552 22.4217 26.9683 21.9384C26.9814 21.4551 26.8964 21.0109 26.7136 20.606C26.5438 20.201 26.3348 19.9267 26.0866 19.783C25.8776 19.6916 25.6098 19.6524 25.2832 19.6655C24.9958 19.6785 24.6366 19.7504 24.2056 19.881C23.7745 20.0116 23.2455 20.2468 22.6185 20.5864C22.5531 20.8215 22.5009 21.0305 22.4617 21.2134C22.4225 21.3963 22.3899 21.5596 22.3637 21.7032C22.3376 21.86 22.318 22.0037 22.305 22.1343Z" fill="black"/>
<path d="M30.9458 23.5451L34.5511 23.5843C34.3421 24.3811 34.1854 25.0603 34.0809 25.622C33.9894 26.1837 33.9306 26.654 33.9045 27.0328C33.8523 27.4638 33.8392 27.8296 33.8653 28.13C33.9045 28.4043 33.9698 28.6983 34.0613 29.0118C34.1396 29.273 34.2572 29.5734 34.414 29.9131C34.5707 30.2527 34.7797 30.5923 35.041 30.932C34.8842 30.8797 34.7144 30.8405 34.5315 30.8144C34.3487 30.7883 34.1788 30.7687 34.0221 30.7556C33.8392 30.7425 33.6563 30.7425 33.4735 30.7556C33.2906 30.7687 33.0881 30.7883 32.866 30.8144C32.6832 30.8405 32.4611 30.8732 32.1999 30.9124C31.9386 30.9515 31.6643 31.0038 31.3769 31.0691C31.5729 30.4813 31.7231 29.9719 31.8276 29.5408C31.9451 29.1097 32.03 28.7505 32.0823 28.4631C32.1345 28.1235 32.1672 27.8492 32.1803 27.6402C32.1803 27.3789 32.1803 27.085 32.1803 26.7585C32.1803 26.4188 32.1803 26.0923 32.1803 25.7788C32.1803 25.4653 32.1737 25.191 32.1607 24.9558C32.1476 24.7076 32.1215 24.5509 32.0823 24.4856L31.8864 24.2896C31.808 24.2243 31.6904 24.1329 31.5337 24.0153C31.39 23.8847 31.194 23.7279 30.9458 23.5451ZM32.337 20.5276C32.6113 20.3839 32.8856 20.3447 33.16 20.41C33.4473 20.4754 33.6694 20.5995 33.8261 20.7823C33.9829 20.9652 34.0351 21.1807 33.9829 21.4289C33.9437 21.6771 33.7347 21.9188 33.3559 22.1539C32.9771 22.376 32.644 22.4543 32.3566 22.389C32.0692 22.3237 31.8668 22.1866 31.7492 21.9776C31.6316 21.7686 31.612 21.5269 31.6904 21.2526C31.7688 20.9652 31.9843 20.7235 32.337 20.5276Z" fill="black"/>
<path d="M36.3538 30.1482C36.4452 29.7171 36.5105 29.3383 36.5497 29.0118C36.6019 28.6721 36.6411 28.3913 36.6673 28.1692C36.6934 27.908 36.7064 27.6859 36.7064 27.503C36.6934 27.281 36.6803 27.0197 36.6673 26.7193C36.6673 26.4058 36.6542 26.0988 36.6281 25.7984C36.615 25.4849 36.5954 25.2105 36.5693 24.9754C36.5432 24.7272 36.5105 24.5509 36.4713 24.4464C36.4191 24.3419 36.3472 24.2309 36.2558 24.1133C36.0729 23.8912 35.8051 23.6757 35.4524 23.4667C35.7529 23.4014 36.0076 23.3491 36.2166 23.3099C36.4387 23.2577 36.6215 23.212 36.7652 23.1728C36.922 23.1205 37.0591 23.0748 37.1767 23.0356C37.2812 22.9964 37.4053 22.9572 37.549 22.9181C37.6665 22.8919 37.8102 22.8593 37.9801 22.8201C38.1499 22.7809 38.3458 22.7352 38.5679 22.6829L38.5091 24.466C38.9271 23.9696 39.3516 23.5973 39.7827 23.3491C40.2138 23.1009 40.6187 22.9246 40.9975 22.8201C41.4286 22.6895 41.8531 22.6242 42.2711 22.6242C42.7936 22.6503 43.2769 22.7352 43.7211 22.8789C44.1782 23.0226 44.5701 23.1924 44.8967 23.3883C45.2363 23.5712 45.5106 23.7671 45.7196 23.9761C45.9286 24.1851 46.0527 24.368 46.0919 24.5248C46.2487 25.0342 46.2878 25.5045 46.2095 25.9355C46.1311 26.3535 46.0266 26.765 45.896 27.1699C45.7784 27.5618 45.6739 27.9537 45.5825 28.3456C45.5041 28.7374 45.5368 29.162 45.6804 29.6192C45.7327 29.7367 45.7849 29.8543 45.8372 29.9719C45.8894 30.0764 45.9548 30.1809 46.0331 30.2854C46.1115 30.3899 46.2029 30.4748 46.3074 30.5401C46.1638 30.527 46.0201 30.5205 45.8764 30.5205C45.7327 30.5074 45.6021 30.4944 45.4845 30.4813C45.3408 30.4682 45.2102 30.4552 45.0926 30.4421C44.962 30.429 44.7857 30.4225 44.5636 30.4225C44.1848 30.4225 43.597 30.4421 42.8001 30.4813C42.9177 30.207 43.0091 29.9784 43.0745 29.7955C43.1528 29.5996 43.2181 29.4428 43.2704 29.3253C43.3226 29.1816 43.3618 29.0705 43.388 28.9922C43.5447 28.6133 43.6361 28.1823 43.6623 27.699C43.7015 27.2157 43.6688 26.7258 43.5643 26.2294C43.5251 26.0596 43.4598 25.8571 43.3684 25.622C43.2769 25.3869 43.1528 25.1583 42.9961 24.9362C42.8524 24.7142 42.676 24.5248 42.467 24.368C42.2711 24.2113 42.0425 24.1198 41.7813 24.0937C41.52 24.0676 41.2261 24.1329 40.8995 24.2896C40.586 24.4464 40.2464 24.7338 39.8807 25.1518C39.6063 25.5045 39.3908 25.9355 39.2341 26.445C39.0904 26.876 38.9924 27.4181 38.9401 28.0713C38.8879 28.7113 38.9663 29.4624 39.1753 30.3245C38.9924 30.2984 38.8226 30.2854 38.6658 30.2854C38.5091 30.2723 38.3785 30.2592 38.274 30.2462C38.1433 30.2331 38.0258 30.22 37.9213 30.207C37.8037 30.207 37.6731 30.2005 37.5294 30.1874C37.3988 30.1874 37.2355 30.1874 37.0395 30.1874C36.8436 30.1743 36.615 30.1613 36.3538 30.1482Z" fill="black"/>
<path d="M47.3067 18.1763C47.4504 18.2417 47.6202 18.2874 47.8162 18.3135C48.0252 18.3396 48.2211 18.3527 48.404 18.3527C48.6261 18.3527 48.8546 18.3462 49.0898 18.3331C49.3249 18.32 49.6123 18.2939 49.9519 18.2547C50.2262 18.2286 50.5658 18.1959 50.9708 18.1568C51.3757 18.1176 51.8264 18.0653 52.3228 18C52.1399 18.0914 51.9831 18.1894 51.8525 18.2939C51.7219 18.3984 51.6109 18.5029 51.5194 18.6074C51.4149 18.725 51.33 18.8425 51.2647 18.9601C51.1733 19.1169 51.0492 19.3912 50.8924 19.783C50.7487 20.1619 50.5985 20.5864 50.4418 21.0566C50.2981 21.5269 50.1674 22.0037 50.0499 22.487C49.9454 22.9703 49.8866 23.3818 49.8735 23.7214C49.8605 24.0088 49.8474 24.3354 49.8343 24.7011C49.8213 25.0146 49.8082 25.4 49.7952 25.8571C49.7821 26.3143 49.769 26.8368 49.756 27.4247C50.6965 26.7454 51.4214 26.2033 51.9309 25.7984C52.4403 25.3804 52.8126 25.0603 53.0477 24.8383C53.3221 24.5901 53.4853 24.4137 53.5376 24.3092C53.5245 24.2309 53.4919 24.1459 53.4396 24.0545C53.3743 23.9761 53.2829 23.8847 53.1653 23.7802C53.0477 23.6757 52.8714 23.5581 52.6363 23.4275C52.9759 23.4667 53.2698 23.4928 53.518 23.5059C53.7792 23.5189 54.0013 23.532 54.1842 23.5451C54.3932 23.5581 54.5761 23.5581 54.7328 23.5451C54.9026 23.5451 55.1116 23.5385 55.3598 23.5255C55.7909 23.5124 56.4571 23.4928 57.3584 23.4667C56.4832 23.9239 55.7909 24.3158 55.2814 24.6423C54.9941 24.8252 54.7393 24.995 54.5173 25.1518C54.2952 25.3216 54.0666 25.4979 53.8315 25.6808C53.6225 25.8375 53.3808 26.0204 53.1065 26.2294C52.8453 26.4384 52.584 26.6605 52.3228 26.8956C52.78 27.6402 53.1784 28.2541 53.518 28.7374C53.8707 29.2208 54.1646 29.6126 54.3997 29.9131C54.674 30.2658 54.9157 30.5466 55.1247 30.7556C55.3337 30.9516 55.608 31.1736 55.9476 31.4218C56.235 31.6439 56.6073 31.9051 57.0645 32.2056C57.5347 32.4929 58.103 32.826 58.7691 33.2048C58.4295 33.1395 58.103 33.0938 57.7895 33.0677C57.476 33.0546 57.2082 33.0546 56.9861 33.0677C56.7118 33.0808 56.4636 33.1069 56.2415 33.1461C56.0064 33.1983 55.7452 33.2636 55.4578 33.342C55.2096 33.4073 54.9157 33.4922 54.5761 33.5967C54.2495 33.7143 53.8903 33.8645 53.4984 34.0474C53.7466 33.8645 53.9295 33.6882 54.047 33.5183C54.1777 33.3616 54.2691 33.231 54.3213 33.1265C54.3736 32.9958 54.3932 32.8848 54.3801 32.7934C54.3148 32.6627 54.1646 32.395 53.9295 31.99C53.7074 31.6504 53.3808 31.154 52.9498 30.5009C52.5187 29.8478 51.9048 28.9595 51.1079 27.8361C51.0688 27.8492 51.0034 27.8884 50.912 27.9537C50.8336 28.019 50.7161 28.1104 50.5593 28.228C50.4026 28.3325 50.1936 28.4893 49.9323 28.6983L50.4613 32.1272C50.3438 32.1794 50.2132 32.2252 50.0695 32.2643C49.9388 32.3035 49.8147 32.3362 49.6972 32.3623C49.5535 32.4015 49.4098 32.4276 49.2661 32.4407C49.1224 32.4537 48.9526 32.4799 48.7567 32.5191C48.5869 32.5452 48.3844 32.5778 48.1493 32.617C47.9141 32.6693 47.6464 32.7281 47.3459 32.7934C47.5157 32.6758 47.6529 32.5387 47.7574 32.3819C47.8619 32.2382 47.9468 32.1011 48.0121 31.9704C48.0774 31.8267 48.1362 31.6765 48.1885 31.5198C48.2146 31.3891 48.2407 31.0495 48.2668 30.5009C48.306 29.9523 48.3387 29.2991 48.3648 28.5415C48.3909 27.7708 48.4105 26.9479 48.4236 26.0727C48.4497 25.1975 48.4628 24.3745 48.4628 23.6038C48.4628 22.8201 48.4562 22.1408 48.4432 21.5661C48.4301 20.9783 48.404 20.5995 48.3648 20.4296C48.2995 20.2206 48.2211 19.9986 48.1297 19.7634C48.0513 19.5544 47.9403 19.3193 47.7966 19.0581C47.666 18.7838 47.5027 18.4898 47.3067 18.1763Z" fill="black"/>
<path d="M10 42.9272C10.4311 42.9794 10.8229 43.0186 11.1756 43.0447C11.5153 43.0709 11.8092 43.097 12.0574 43.1231C12.3447 43.1492 12.5995 43.1688 12.8215 43.1819C13.0566 43.1819 13.3571 43.1754 13.7228 43.1623C14.0363 43.1492 14.4347 43.1296 14.9181 43.1035C15.4014 43.0774 15.9957 43.0317 16.7011 42.9664C16.3615 43.1623 16.0806 43.3582 15.8586 43.5542C15.6496 43.7501 15.4863 43.9265 15.3687 44.0832C15.225 44.2661 15.1205 44.449 15.0552 44.6318C15.016 44.88 15.0291 45.3633 15.0944 46.0818C15.1205 46.3822 15.1597 46.7545 15.212 47.1986C15.2773 47.6297 15.3557 48.1457 15.4471 48.7465C15.5516 49.3344 15.6757 50.0136 15.8194 50.7843C15.9761 51.555 16.1525 52.4302 16.3484 53.4099C16.6097 52.6653 16.8252 52.0057 16.995 51.4309C17.1648 50.8431 17.3085 50.3402 17.4261 49.9222C17.5567 49.4519 17.6677 49.0339 17.7592 48.6682C17.8506 48.2894 17.9616 47.7995 18.0923 47.1986C18.1968 46.6892 18.3339 46.0295 18.5037 45.2196C18.6736 44.4098 18.8826 43.4105 19.1307 42.2218L19.8361 42.3198C19.9014 43.2472 19.9667 44.0636 20.0321 44.769C20.1104 45.4744 20.1758 46.0752 20.228 46.5716C20.2803 47.1464 20.3325 47.6428 20.3848 48.0608C20.437 48.4396 20.5154 48.8772 20.6199 49.3736C20.7113 49.7916 20.8289 50.3075 20.9726 50.9215C21.1163 51.5223 21.3057 52.2016 21.5408 52.9592C21.7759 52.0318 21.9849 51.2023 22.1678 50.4708C22.3637 49.7393 22.527 49.0927 22.6576 48.531C22.8013 47.9693 22.9189 47.486 23.0103 47.0811C23.1148 46.6761 23.1997 46.3365 23.2651 46.0622C23.4087 45.4091 23.4936 44.9715 23.5198 44.7494C23.5067 44.5012 23.4479 44.2595 23.3434 44.0244C23.252 43.8154 23.1083 43.5868 22.9124 43.3386C22.7164 43.0904 22.429 42.8488 22.0502 42.6137C22.847 42.6398 23.4936 42.6594 23.99 42.6724C24.4995 42.6724 24.9044 42.6724 25.2048 42.6724H26.694C26.9552 42.6724 27.2949 42.6724 27.7129 42.6724C28.1439 42.6594 28.6926 42.6398 29.3587 42.6137C28.784 42.9141 28.3203 43.1884 27.9676 43.4366C27.6149 43.6848 27.3406 43.8938 27.1446 44.0636C26.9095 44.2726 26.7397 44.449 26.6352 44.5926C26.5307 44.8539 26.3609 45.4417 26.1258 46.3561C26.0213 46.748 25.9037 47.2378 25.7731 47.8256C25.6424 48.4004 25.4857 49.0927 25.3028 49.9026C25.133 50.7125 24.9371 51.6595 24.715 52.7437C24.4929 53.8148 24.2447 55.0427 23.9704 56.4273L20.5807 56.0747L19.1307 49.981C18.9087 51.0913 18.7323 51.9926 18.6017 52.6849C18.4711 53.3642 18.3731 53.8932 18.3078 54.272C18.2294 54.7292 18.1837 55.0623 18.1706 55.2713C18.1576 55.4542 18.1445 55.6305 18.1315 55.8003C18.1184 55.944 18.0988 56.1008 18.0727 56.2706C18.0596 56.4404 18.04 56.5972 18.0139 56.7408H14.5458C14.2062 55.2517 13.8992 53.9389 13.6249 52.8025C13.3636 51.653 13.1285 50.6472 12.9195 49.785C12.7105 48.9229 12.5276 48.1914 12.3709 47.5905C12.2272 46.9896 12.0965 46.4867 11.979 46.0818C11.7177 45.1413 11.5283 44.56 11.4108 44.3379C11.3193 44.2334 11.2018 44.1093 11.0581 43.9656C10.9405 43.8481 10.7968 43.7044 10.627 43.5346C10.4441 43.3517 10.2351 43.1492 10 42.9272Z" fill="black"/>
<path d="M28.1047 48.7661C28.1701 48.6878 28.2092 48.5441 28.2223 48.3351C28.2484 48.113 28.3007 47.8648 28.3791 47.5905C28.4705 47.3162 28.6207 47.0288 28.8297 46.7284C29.0387 46.4279 29.3783 46.1471 29.8486 45.8858C30.3058 45.6246 30.7499 45.4678 31.181 45.4156C31.612 45.3633 32.0235 45.3829 32.4154 45.4744C32.8073 45.5658 33.173 45.7095 33.5126 45.9054C33.8653 46.1014 34.1854 46.3169 34.4727 46.552C34.6687 46.7088 34.8254 46.9374 34.943 47.2378C35.0606 47.5252 35.152 47.8518 35.2173 48.2175C35.2826 48.5833 35.3283 48.9686 35.3545 49.3736C35.3937 49.7654 35.4198 50.1508 35.4328 50.5296C35.4459 50.8953 35.4524 51.235 35.4524 51.5485C35.4655 51.8489 35.4916 52.0971 35.5308 52.293C35.5831 52.5804 35.6745 52.8286 35.8051 53.0376C35.9358 53.2335 36.0794 53.4034 36.2362 53.547C36.3929 53.6777 36.5497 53.7822 36.7064 53.8605C36.8632 53.9389 37.0004 53.9977 37.1179 54.0369C37.1963 54.0761 37.2681 54.1022 37.3335 54.1153C37.4641 54.1675 37.5555 54.1675 37.6078 54.1153C37.5294 54.2981 37.4575 54.4549 37.3922 54.5855C37.3269 54.7161 37.2747 54.8272 37.2355 54.9186C37.1832 55.0231 37.1375 55.108 37.0983 55.1733C37.0591 55.2517 37.0134 55.3236 36.9612 55.3889C36.922 55.4542 36.8697 55.526 36.8044 55.6044C36.7391 55.6828 36.6738 55.7677 36.6085 55.8591C36.4387 55.7938 36.2754 55.7154 36.1186 55.624C35.9749 55.5326 35.8443 55.4477 35.7268 55.3693C35.5831 55.2778 35.4524 55.1864 35.3349 55.095C35.2173 55.0035 35.1063 54.899 35.0018 54.7815C34.9103 54.677 34.8124 54.5659 34.7079 54.4484C34.6164 54.3308 34.5381 54.2002 34.4727 54.0565C34.3944 54.2263 34.205 54.468 33.9045 54.7815C33.6171 55.095 33.2383 55.3823 32.7681 55.6436C32.2978 55.8918 31.7492 56.0681 31.1222 56.1726C30.5083 56.2771 29.829 56.2053 29.0844 55.9571C28.7579 55.8526 28.4509 55.7024 28.1635 55.5064C27.8761 55.2974 27.628 55.0492 27.419 54.7619C27.223 54.4745 27.0793 54.1479 26.9879 53.7822C26.9095 53.4034 26.916 52.9854 27.0075 52.5282C27.0989 52.071 27.2622 51.6856 27.4973 51.3721C27.7325 51.0586 28.0133 50.8039 28.3399 50.608C28.6664 50.412 29.0322 50.2618 29.4371 50.1573C29.8421 50.0528 30.2601 49.981 30.6911 49.9418C31.0308 49.9287 31.3704 49.9483 31.71 50.0006C31.9974 50.0528 32.2978 50.1508 32.6113 50.2945C32.9248 50.4251 33.1926 50.6276 33.4147 50.9019C33.4016 50.2096 33.3755 49.6609 33.3363 49.256C33.3102 48.838 33.284 48.518 33.2579 48.2959C33.2057 48.0346 33.16 47.8518 33.1208 47.7473C33.0555 47.6558 32.9836 47.5513 32.9052 47.4338C32.8399 47.3162 32.755 47.2117 32.6505 47.1203C32.546 47.0158 32.4154 46.9308 32.2586 46.8655C32.1019 46.8002 31.919 46.7741 31.71 46.7872C31.4879 46.8002 31.3116 46.859 31.181 46.9635C31.0503 47.068 30.9458 47.1921 30.8675 47.3358C30.8022 47.4664 30.763 47.6101 30.7499 47.7669C30.7368 47.9236 30.7434 48.0608 30.7695 48.1783C30.7956 48.2567 30.8348 48.3416 30.8871 48.433C30.9393 48.5114 31.0112 48.5963 31.1026 48.6878C31.194 48.7792 31.3181 48.8576 31.4749 48.9229C31.1744 48.9621 30.9067 48.9947 30.6715 49.0209C30.4364 49.0339 30.2339 49.0535 30.0641 49.0796C29.8682 49.1058 29.6984 49.1254 29.5547 49.1384C29.411 49.1515 29.2412 49.1776 29.0452 49.2168C28.8754 49.2429 28.6664 49.2756 28.4182 49.3148C28.1701 49.354 27.8827 49.4062 27.5561 49.4715C27.6345 49.3801 27.7063 49.2952 27.7716 49.2168C27.837 49.1254 27.8957 49.047 27.948 48.9817C28.0002 48.9033 28.0525 48.8315 28.1047 48.7661ZM31.0438 51.0978C30.8087 51.1109 30.5736 51.1697 30.3384 51.2742C30.1033 51.3656 29.8943 51.5028 29.7114 51.6856C29.5286 51.8554 29.3718 52.0579 29.2412 52.293C29.1236 52.5151 29.0648 52.7633 29.0648 53.0376C29.0648 53.3119 29.1301 53.5536 29.2608 53.7626C29.4045 53.9585 29.5873 54.1218 29.8094 54.2524C30.0445 54.3831 30.2927 54.4614 30.554 54.4876C30.8283 54.5137 31.0961 54.4876 31.3573 54.4092C31.6055 54.3177 31.8406 54.174 32.0627 53.9781C32.2848 53.7691 32.4742 53.547 32.6309 53.3119C32.7877 53.0637 32.8987 52.8221 32.964 52.5869C33.0293 52.3388 33.0359 52.1363 32.9836 51.9795C32.8791 51.6399 32.644 51.4048 32.2782 51.2742C31.9125 51.1305 31.501 51.0717 31.0438 51.0978Z" fill="black"/>
<path d="M37.8625 57.2503C37.9931 57.0543 38.0976 56.8715 38.176 56.7017C38.2544 56.5318 38.3197 56.3882 38.3719 56.2706C38.4242 56.1269 38.4634 55.9963 38.4895 55.8787C38.5026 55.8003 38.5091 55.5717 38.5091 55.1929C38.5091 54.8141 38.496 54.3373 38.4699 53.7626C38.4568 53.1878 38.4372 52.5412 38.4111 51.8228C38.3981 51.1043 38.3719 50.3728 38.3327 49.6283C38.3066 48.8837 38.274 48.1587 38.2348 47.4534C38.2086 46.748 38.1825 46.1144 38.1564 45.5527C38.1303 44.978 38.1041 44.5077 38.078 44.142C38.0519 43.7762 38.0323 43.5672 38.0192 43.515C37.9931 43.4366 37.9474 43.3582 37.8821 43.2799C37.7515 43.1231 37.5294 42.9729 37.2159 42.8292C37.8821 42.6594 38.3915 42.5222 38.7442 42.4177C38.9532 42.3655 39.1361 42.3132 39.2928 42.261C39.4365 42.2087 39.5802 42.1565 39.7239 42.1042C39.8415 42.052 39.9721 41.9932 40.1158 41.9279C40.2595 41.8495 40.3901 41.7646 40.5077 41.6732C40.4423 42.052 40.3901 42.4177 40.3509 42.7704C40.3117 43.1231 40.2791 43.4497 40.2529 43.7501C40.2268 44.0897 40.2138 44.4163 40.2138 44.7298C40.1484 45.3699 40.1093 46.0687 40.0962 46.8263C40.0962 47.5709 40.1027 48.3285 40.1158 49.0992C40.1288 49.8699 40.155 50.621 40.1942 51.3525C40.2333 52.084 40.2725 52.7502 40.3117 53.3511C40.364 53.9389 40.4097 54.4418 40.4489 54.8598C40.5011 55.2648 40.5403 55.526 40.5664 55.6436C40.6187 55.8395 40.6709 56.0289 40.7232 56.2118C40.7754 56.3686 40.8342 56.5318 40.8995 56.7017C40.9648 56.8845 41.0432 57.0282 41.1347 57.1327H39.2341C39.0642 57.1327 38.901 57.1393 38.7442 57.1523C38.6005 57.1654 38.4503 57.1784 38.2936 57.1915C38.1368 57.2046 37.9931 57.2242 37.8625 57.2503Z" fill="black"/>
<path d="M42.2907 57.2503C42.4213 57.0543 42.5258 56.8715 42.6042 56.7017C42.6826 56.5318 42.7479 56.3882 42.8001 56.2706C42.8524 56.1269 42.8916 55.9963 42.9177 55.8787C42.9308 55.8003 42.9373 55.5717 42.9373 55.1929C42.9373 54.8141 42.9242 54.3373 42.8981 53.7626C42.885 53.1878 42.8655 52.5412 42.8393 51.8228C42.8263 51.1043 42.8001 50.3728 42.761 49.6283C42.7348 48.8837 42.7022 48.1587 42.663 47.4534C42.6369 46.748 42.6107 46.1144 42.5846 45.5527C42.5585 44.978 42.5324 44.5077 42.5062 44.142C42.4801 43.7762 42.4605 43.5672 42.4474 43.515C42.4213 43.4366 42.3756 43.3582 42.3103 43.2799C42.1797 43.1231 41.9576 42.9729 41.6441 42.8292C42.3103 42.6594 42.8197 42.5222 43.1724 42.4177C43.3814 42.3655 43.5643 42.3132 43.7211 42.261C43.8647 42.2087 44.0084 42.1565 44.1521 42.1042C44.2697 42.052 44.4003 41.9932 44.544 41.9279C44.6877 41.8495 44.8183 41.7646 44.9359 41.6732C44.8706 42.052 44.8183 42.4177 44.7791 42.7704C44.7399 43.1231 44.7073 43.4497 44.6812 43.7501C44.655 44.0897 44.642 44.4163 44.642 44.7298C44.5767 45.3699 44.5375 46.0687 44.5244 46.8263C44.5244 47.5709 44.5309 48.3285 44.544 49.0992C44.5571 49.8699 44.5832 50.621 44.6224 51.3525C44.6616 52.084 44.7007 52.7502 44.7399 53.3511C44.7922 53.9389 44.8379 54.4418 44.8771 54.8598C44.9293 55.2648 44.9685 55.526 44.9947 55.6436C45.0469 55.8395 45.0992 56.0289 45.1514 56.2118C45.2037 56.3686 45.2624 56.5318 45.3278 56.7017C45.3931 56.8845 45.4714 57.0282 45.5629 57.1327H43.6623C43.4925 57.1327 43.3292 57.1393 43.1724 57.1523C43.0287 57.1654 42.8785 57.1784 42.7218 57.1915C42.565 57.2046 42.4213 57.2242 42.2907 57.2503Z" fill="black"/>
<path d="M51.3627 53.547C51.7284 53.547 52.068 53.5079 52.3815 53.4295C52.6428 53.3642 52.891 53.2597 53.1261 53.116C53.3743 52.9592 53.5376 52.7306 53.616 52.4302C53.8772 52.4824 54.0993 52.5282 54.2822 52.5674C54.465 52.5935 54.6218 52.6196 54.7524 52.6457C54.8961 52.6849 55.0202 52.711 55.1247 52.7241C55.2292 52.7502 55.3533 52.7764 55.497 52.8025C55.6276 52.8286 55.7843 52.8613 55.9672 52.9004C56.1632 52.9266 56.3918 52.9658 56.653 53.018C56.4571 52.9919 56.2546 53.0115 56.0456 53.0768C55.8497 53.1421 55.6603 53.2139 55.4774 53.2923C55.2684 53.3838 55.0724 53.4948 54.8896 53.6254C54.772 53.7038 54.6348 53.8214 54.4781 53.9781C54.3344 54.1349 54.1254 54.2851 53.8511 54.4288C53.5768 54.5725 53.211 54.6966 52.7538 54.8011C52.3097 54.8925 51.735 54.9251 51.0296 54.899C50.1805 54.8729 49.4686 54.7227 48.8938 54.4484C48.3191 54.161 47.8554 53.8148 47.5027 53.4099C47.15 52.9919 46.8953 52.5412 46.7385 52.0579C46.5818 51.5746 46.4969 51.1239 46.4838 50.7059C46.4707 50.2879 46.5948 49.8503 46.8561 49.3931C47.1173 48.936 47.4831 48.518 47.9533 48.1391C48.4366 47.7603 49.0179 47.4534 49.6972 47.2182C50.3764 46.97 51.121 46.8459 51.9309 46.8459C52.4011 46.8459 52.8322 46.9047 53.2241 47.0223C53.629 47.1268 53.9948 47.2705 54.3213 47.4534C54.661 47.6362 54.9549 47.8452 55.2031 48.0804C55.4513 48.3024 55.6603 48.531 55.8301 48.7661C55.9999 49.0143 56.1436 49.2756 56.2611 49.5499C56.3656 49.785 56.4505 50.0528 56.5159 50.3532C56.5812 50.6537 56.6008 50.9607 56.5746 51.2742C55.5819 51.3003 54.7785 51.3199 54.1646 51.3329C53.5637 51.346 53.0935 51.3525 52.7538 51.3525H51.2059C50.9708 51.3525 50.6638 51.3591 50.285 51.3721C49.9062 51.3852 49.4425 51.4048 48.8938 51.4309C48.9592 51.9534 49.1224 52.3584 49.3837 52.6457C49.658 52.92 49.9454 53.129 50.2458 53.2727C50.5854 53.4295 50.9577 53.5209 51.3627 53.547ZM49.5992 50.0201C50.0172 50.0463 50.3634 50.0659 50.6377 50.0789C50.9251 50.092 51.1602 50.1051 51.3431 50.1181C51.539 50.1312 51.6958 50.1377 51.8133 50.1377H52.3032C52.6297 50.1377 53.2371 50.1181 54.1254 50.0789C54.0862 49.5042 53.9621 49.0666 53.7531 48.7661C53.5572 48.4657 53.3482 48.2436 53.1261 48.1C52.8649 47.9432 52.5775 47.8518 52.264 47.8256C51.4149 47.8387 50.7814 48.015 50.3634 48.3547C49.9584 48.6943 49.7037 49.2495 49.5992 50.0201Z" fill="black"/>
<path d="M57.1233 44.3575C57.5151 44.3967 57.8417 44.4294 58.103 44.4555C58.3773 44.4816 58.5993 44.5012 58.7691 44.5143C58.9651 44.5273 59.1218 44.5339 59.2394 44.5339C59.357 44.5469 59.5137 44.5469 59.7097 44.5339C59.8795 44.5208 60.1015 44.5077 60.3758 44.4947C60.6502 44.4686 60.9963 44.4294 61.4143 44.3771C61.3229 44.5077 61.251 44.6253 61.1988 44.7298C61.1465 44.8212 61.1008 44.9061 61.0616 44.9845L60.9441 45.2196C60.9179 45.298 60.8918 45.3764 60.8657 45.4548C60.8396 45.5201 60.8134 45.5985 60.7873 45.6899C60.7743 45.7813 60.7612 45.8793 60.7481 45.9838H63.7656L63.4913 47.5709L60.7285 47.4142C60.6632 48.0804 60.6175 48.5963 60.5914 48.9621C60.5653 49.3278 60.5391 49.5956 60.513 49.7654L60.4738 50.1181C60.4346 50.6145 60.3954 51.1566 60.3562 51.7444C60.3171 52.3192 60.304 52.8547 60.3171 53.3511C60.3301 53.8475 60.3758 54.2655 60.4542 54.6051C60.5326 54.9317 60.6698 55.095 60.8657 55.095C61.0616 55.095 61.2445 55.0427 61.4143 54.9382C61.5841 54.8337 61.7278 54.7096 61.8454 54.5659C61.976 54.4222 62.074 54.2786 62.1393 54.1349C62.2046 53.9781 62.2373 53.8605 62.2373 53.7822C62.2373 53.7038 62.2177 53.6124 62.1785 53.5079C62.1132 53.3119 61.9956 53.0637 61.8258 52.7633C62.2046 52.8547 62.5377 52.9462 62.8251 53.0376C62.9688 53.0899 63.0994 53.1421 63.217 53.1944C63.3476 53.2466 63.4978 53.3054 63.6676 53.3707C63.8113 53.436 63.9942 53.5144 64.2162 53.6058C64.4383 53.6973 64.6996 53.8083 65 53.9389C64.7126 53.9912 64.5036 54.0761 64.373 54.1936C64.2946 54.2459 64.2358 54.3047 64.1967 54.37C64.1052 54.5137 64.0007 54.7096 63.8831 54.9578C63.7656 55.1929 63.5892 55.4281 63.3541 55.6632C63.119 55.8983 62.799 56.1073 62.394 56.2902C62.0021 56.4731 61.4731 56.5776 60.8069 56.6037C60.1146 56.6298 59.5856 56.5123 59.2198 56.251C58.8671 55.9897 58.6059 55.6893 58.4361 55.3497C58.2793 54.997 58.1879 54.6508 58.1617 54.3112C58.1356 53.9716 58.116 53.743 58.103 53.6254C58.0899 53.5079 58.0899 53.214 58.103 52.7437C58.116 52.2734 58.1356 51.7575 58.1617 51.1958C58.1879 50.621 58.214 50.0724 58.2401 49.5499C58.2662 49.0143 58.2793 48.6225 58.2793 48.3743C58.2793 48.2436 58.2858 48.1065 58.2989 47.9628C58.2989 47.8452 58.2989 47.7211 58.2989 47.5905C58.312 47.4468 58.3185 47.3097 58.3185 47.179L55.4774 47.1594L55.3598 46.0426L58.2205 46.121C58.1944 45.9773 58.1617 45.8467 58.1226 45.7291C58.0964 45.5985 58.0703 45.494 58.0442 45.4156C58.005 45.3242 57.9658 45.2458 57.9266 45.1805C57.8744 45.1152 57.8156 45.0433 57.7503 44.9649C57.685 44.8996 57.6 44.8147 57.4955 44.7102C57.391 44.6057 57.267 44.4881 57.1233 44.3575Z" fill="black"/>
</svg>
